<svg width="120" height="39" viewBox="0 0 120 39" fill="none" xmlns="http://www.w3.org/2000/svg">
<path id="Vector" d="M56.233 36.0653L56.2333 36.0654C57.2449 36.5881 58.4763 36.8085 59.623 36.8085C60.7696 36.8085 62.001 36.5881 63.0127 36.0654L116.563 8.39729C117.566 7.87912 118.5 6.97316 118.5 5.65747C118.5 4.33986 117.526 3.42645 116.563 2.92916C115.551 2.40647 114.32 2.1861 113.173 2.1861C112.027 2.1861 110.795 2.40647 109.784 2.92916L59.623 28.8459L10.2051 3.31295C9.19344 2.79026 7.96201 2.56989 6.81538 2.56989C5.66875 2.56989 4.43732 2.79026 3.42569 3.31295C2.44888 3.81764 1.5 4.7286 1.5 6.0412C1.5 7.35371 2.44873 8.26462 3.42546 8.76934C3.42554 8.76938 3.42561 8.76941 3.42569 8.76945L56.233 36.0653Z" fill="white" stroke="#071F37" stroke-width="3"/>
</svg>
