<svg width="34" height="38" viewBox="0 0 34 38" fill="none" xmlns="http://www.w3.org/2000/svg">
<path id="Vector" d="M12.925 0C13.2366 0 13.5355 0.123795 13.7558 0.34415C13.9762 0.564505 14.1 0.863371 14.1 1.175V5.875C14.1 6.18663 13.9762 6.48549 13.7558 6.70585C13.5355 6.92621 13.2366 7.05 12.925 7.05C12.6134 7.05 12.3145 6.92621 12.0941 6.70585C11.8738 6.48549 11.75 6.18663 11.75 5.875V1.175C11.75 0.863371 11.8738 0.564505 12.0941 0.34415C12.3145 0.123795 12.6134 0 12.925 0ZM3.7835 3.7835C3.89265 3.67408 4.02231 3.58726 4.16506 3.52803C4.30781 3.46879 4.46085 3.4383 4.6154 3.4383C4.76995 3.4383 4.92299 3.46879 5.06574 3.52803C5.20849 3.58726 5.33815 3.67408 5.4473 3.7835L8.7702 7.10875C8.88242 7.21714 8.97194 7.3468 9.03352 7.49015C9.0951 7.6335 9.12751 7.78769 9.12887 7.9437C9.13023 8.09972 9.10049 8.25444 9.04141 8.39885C8.98234 8.54325 8.89509 8.67444 8.78476 8.78476C8.67444 8.89509 8.54325 8.98234 8.39885 9.04141C8.25444 9.10049 8.09972 9.13023 7.9437 9.12887C7.78769 9.12751 7.6335 9.0951 7.49015 9.03352C7.3468 8.97194 7.21714 8.88242 7.10875 8.7702L3.78585 5.4473C3.56557 5.22695 3.44183 4.92814 3.44183 4.61657C3.44183 4.30501 3.56557 4.0062 3.78585 3.78585L3.7835 3.7835ZM22.0665 3.7835C22.1759 3.89265 22.2627 4.02231 22.322 4.16506C22.3812 4.30781 22.4117 4.46085 22.4117 4.6154C22.4117 4.76995 22.3812 4.92299 22.322 5.06574C22.2627 5.20849 22.1759 5.33815 22.0665 5.4473L18.7389 8.7702C18.6305 8.88242 18.5009 8.97194 18.3575 9.03352C18.2141 9.0951 18.06 9.12751 17.9039 9.12887C17.7479 9.13023 17.5932 9.10049 17.4488 9.04141C17.3044 8.98234 17.1732 8.89509 17.0629 8.78476C16.9526 8.67444 16.8653 8.54325 16.8062 8.39885C16.7472 8.25444 16.7174 8.09972 16.7188 7.9437C16.7201 7.78769 16.7526 7.6335 16.8141 7.49015C16.8757 7.3468 16.9652 7.21714 17.0774 7.10875L20.4003 3.78585C20.6207 3.56557 20.9195 3.44183 21.2311 3.44183C21.5426 3.44183 21.8415 3.56557 22.0618 3.78585L22.0665 3.7835ZM0 12.925C0 12.6134 0.123795 12.3145 0.34415 12.0941C0.564505 11.8738 0.863371 11.75 1.175 11.75H5.875C6.18663 11.75 6.48549 11.8738 6.70585 12.0941C6.92621 12.3145 7.05 12.6134 7.05 12.925C7.05 13.2366 6.92621 13.5355 6.70585 13.7558C6.48549 13.9762 6.18663 14.1 5.875 14.1H1.175C0.863371 14.1 0.564505 13.9762 0.34415 13.7558C0.123795 13.5355 0 13.2366 0 12.925ZM15.604 12.455C15.261 12.1693 14.8438 11.9873 14.4012 11.9301C13.9585 11.8729 13.5087 11.9429 13.1044 12.132C12.7001 12.3211 12.358 12.6214 12.1182 12.9978C11.8783 13.3742 11.7506 13.8111 11.75 14.2575V35.6448C11.75 37.8162 14.4408 38.8267 15.8695 37.1934L20.6306 31.7508C20.9618 31.3732 21.3698 31.0707 21.8274 30.8636C22.285 30.6565 22.7815 30.5496 23.2838 30.55H30.8296C33.0269 30.55 34.0233 27.8005 32.3336 26.3952L15.604 12.4526V12.455ZM14.1 35.6495V14.2575L30.8296 28.2H23.2838C22.4461 28.1999 21.6182 28.3789 20.8554 28.725C20.0926 29.0712 19.4126 29.5764 18.8611 30.2069L14.1 35.6495Z" fill="#071F37"/>
</svg>
