<svg width="100" height="100" viewBox="0 0 100 100" fill="none" xmlns="http://www.w3.org/2000/svg">
<path d="M49.9999 8.5C27.0833 8.5 8.33325 27.2083 8.33325 50.25C8.33325 71.0833 23.5832 88.375 43.4999 91.5V62.3333H32.9166V50.25H43.4999V41.0417C43.4999 30.5833 49.7083 24.8333 59.2499 24.8333C63.7916 24.8333 68.5416 25.625 68.5416 25.625V35.9167H63.2916C58.1249 35.9167 56.4999 39.125 56.4999 42.4167V50.25H68.0833L66.2083 62.3333H56.4999V91.5C66.3184 89.9493 75.2591 84.9396 81.7079 77.3752C88.1568 69.8108 91.6889 60.1902 91.6666 50.25C91.6666 27.2083 72.9166 8.5 49.9999 8.5Z" fill="white"/>
</svg>
