<svg width="64" height="64" viewBox="0 0 64 64" fill="none" xmlns="http://www.w3.org/2000/svg">
<g clip-path="url(#clip0_137_21)">
<path d="M7.93396 41.132L39.828 9.24597L54.746 24.168L22.851 56.054L7.93396 41.132Z" fill="#FFCE31"/>
<path d="M61.3 4.6L59.4001 2.7C55.8001 -0.9 50 -0.9 46.3 2.7L39.8 9.2L54.8 24.2L61.3 17.7C64.9 14.1 64.9 8.2 61.3 4.6Z" fill="#ED4C5C"/>
<path d="M35.782 13.31L39.882 9.20801L54.802 24.128L50.702 28.229L35.782 13.31Z" fill="#93A2AA"/>
<path d="M37.338 14.865L41.438 10.764L53.177 22.502L49.075 26.602L37.338 14.865Z" fill="#C7D3D8"/>
<path d="M7.90002 41.1L1.40002 58.1L5.90002 62.6L22.9 56.1L7.90002 41.1Z" fill="#FED0AC"/>
<path d="M0.300035 61.1C-0.599965 63.5 0.600035 64.6 3.00003 63.7L11.2 60.6L3.50003 52.9L0.300035 61.1Z" fill="#333333"/>
<path d="M7.89001 41.175L35.75 13.315L40.7 18.265L12.84 46.125L7.89001 41.175Z" fill="#FFDF85"/>
<path d="M17.9041 51.142L45.7641 23.282L50.7141 28.232L22.8541 56.092L17.9041 51.142Z" fill="#FF8736"/>
</g>
<defs>
<clipPath id="clip0_137_21">
<rect width="64" height="64" fill="white"/>
</clipPath>
</defs>
</svg>
